<svg xmlns="http://www.w3.org/2000/svg" version="1.1" xmlns:xlink="http://www.w3.org/1999/xlink" xmlns:svgjs="http://svgjs.dev/svgjs" width="1000" height="623" viewBox="0 0 1000 623"><g transform="matrix(1,0,0,1,-0.6060606060606233,0.2522267206477409)"><svg viewBox="0 0 396 247" data-background-color="#ffffff" preserveAspectRatio="xMidYMid meet" height="623" width="1000" xmlns="http://www.w3.org/2000/svg" xmlns:xlink="http://www.w3.org/1999/xlink"><g id="tight-bounds" transform="matrix(1,0,0,1,0.2400000000000091,-0.09999999999999432)"><svg viewBox="0 0 395.52 247.2" height="247.2" width="395.52"><g><svg></svg></g><g><svg viewBox="0 0 395.52 247.2" height="247.2" width="395.52"><g transform="matrix(1,0,0,1,39.55199999999999,90.68742446043166)"><svg viewBox="0 0 316.416 65.82515107913669" height="65.82515107913669" width="316.416"><g><svg viewBox="0 0 316.416 65.82515107913669" height="65.82515107913669" width="316.416"><g><svg viewBox="0 0 316.416 65.82515107913669" height="65.82515107913669" width="316.416"><g><svg viewBox="0 0 316.416 65.82515107913669" height="65.82515107913669" width="316.416"><g id="textblocktransform"><svg viewBox="0 0 316.416 65.82515107913669" height="65.82515107913669" width="316.416" id="textblock"><g><svg viewBox="0 0 316.416 65.82515107913669" height="65.82515107913669" width="316.416"><g transform="matrix(1,0,0,1,0,0)"><svg width="316.416" viewBox="2.0999999046325684 -34.25 166.7899932861328 34.70000076293945" height="65.82515107913669" data-palette-color="#124948"><path d="M2.15-33.95L2.15-33.95Q3.1-33.9 4.63-33.85 6.15-33.8 7.45-33.8L7.45-33.8Q8.75-33.8 10.43-33.83 12.1-33.85 13.83-33.88 15.55-33.9 16.85-33.9L16.85-33.9Q21.05-33.9 23.8-33.15 26.55-32.4 27.9-30.75 29.25-29.1 29.25-26.35L29.25-26.35Q29.25-23.3 27.25-21.13 25.25-18.95 21.65-18.45L21.65-18.45Q24.75-18.25 26.93-17.28 29.1-16.3 30.25-14.45 31.4-12.6 31.4-9.75L31.4-9.75Q31.4-6.95 30-4.75 28.6-2.55 25.55-1.28 22.5 0 17.4 0L17.4 0Q15.6 0 13.53 0 11.45 0 9.4 0.03 7.35 0.05 5.48 0.08 3.6 0.1 2.1 0.15L2.1 0.15Q2.1-0.75 2.18-1.55 2.25-2.35 2.45-2.9L2.45-2.9Q3.8-3 4.53-3.43 5.25-3.85 5.55-4.95 5.85-6.05 5.85-8.2L5.85-8.2 5.85-25.95Q5.85-27.9 5.58-28.93 5.3-29.95 4.55-30.35 3.8-30.75 2.45-30.9L2.45-30.9Q2.25-31.45 2.2-32.35 2.15-33.25 2.15-33.95ZM12.6-30.25L13.3-31.95 13.3-7.95Q13.3-5.8 13.73-4.73 14.15-3.65 15.08-3.3 16-2.95 17.35-2.95L17.35-2.95Q20.05-2.95 21.58-4.6 23.1-6.25 23.1-9.15L23.1-9.15Q23.1-11.2 22.43-12.55 21.75-13.9 20.55-14.63 19.35-15.35 17.8-15.68 16.25-16 14.5-16L14.5-16 12-16 12-19 15-19Q17.4-19 18.85-19.75 20.3-20.5 20.95-21.85 21.6-23.2 21.6-24.95L21.6-24.95Q21.6-27.05 20.7-28.35 19.8-29.65 18.43-30.25 17.05-30.85 15.5-30.85L15.5-30.85Q14.7-30.85 14.05-30.7 13.4-30.55 12.6-30.25L12.6-30.25ZM57.7 0.45L57.7 0.45Q57-0.95 56.42-2.15 55.85-3.35 55.35-4.5 54.85-5.65 54.25-6.9L54.25-6.9Q53.45-8.7 52.72-10 52-11.3 51.07-12.4 50.15-13.5 48.8-14.65L48.8-14.65 50.8-14.15Q49.45-14.1 48.4-14.1 47.35-14.1 46.15-14.15L46.15-14.15 46.4-17.4Q47.15-17.3 47.65-17.25 48.15-17.2 48.6-17.2L48.6-17.2Q50.7-17.2 52.42-17.95 54.15-18.7 55.22-20.25 56.3-21.8 56.3-24.2L56.3-24.2Q56.3-27.3 54.67-29.13 53.05-30.95 49.65-30.95L49.65-30.95Q48.75-30.95 48.02-30.83 47.3-30.7 46.45-30.45L46.45-30.45 46.8-31.8 46.8-8.2Q46.8-6 47.07-4.88 47.35-3.75 47.97-3.38 48.6-3 49.65-2.9L49.65-2.9Q49.8-2.45 49.87-1.58 49.95-0.7 49.95 0.15L49.95 0.15Q48.95 0.1 47.57 0.08 46.2 0.05 44.82 0.03 43.45 0 42.55 0L42.55 0Q40.85 0 38.97 0.03 37.1 0.05 35.6 0.15L35.6 0.15Q35.6-0.8 35.67-1.55 35.75-2.3 35.95-2.9L35.95-2.9Q37.3-3 38.02-3.4 38.75-3.8 39.02-4.88 39.3-5.95 39.3-7.9L39.3-7.9 39.3-26Q39.3-28 39.02-29 38.75-30 38.02-30.43 37.3-30.85 35.9-30.95L35.9-30.95Q35.75-31.55 35.67-32.48 35.6-33.4 35.6-33.95L35.6-33.95Q36.75-33.9 38.77-33.85 40.8-33.8 43-33.8L43-33.8Q44.7-33.8 47.2-33.9 49.7-34 52.35-34L52.35-34Q56.45-34 59.05-32.8 61.65-31.6 62.87-29.58 64.1-27.55 64.1-25.05L64.1-25.05Q64.1-22.2 62.95-20.1 61.8-18 59.75-16.73 57.7-15.45 55.05-15L55.05-15 55.8-15.65Q57.25-14.75 58.2-13.78 59.15-12.8 60.1-11.28 61.05-9.75 62.45-7.1L62.45-7.1Q63.3-5.6 63.95-4.75 64.6-3.9 65.47-3.53 66.35-3.15 67.7-3.05L67.7-3.05Q67.7-2.2 67.6-1.48 67.5-0.75 67.3 0L67.3 0Q64.4 0 61.9 0.1 59.4 0.2 57.7 0.45ZM97.8-24.6L97.8-13.65Q97.8-9.35 97.19-6.7 96.59-4.05 94.84-2.3L94.84-2.3Q93.34-0.9 91.22-0.23 89.09 0.45 86.34 0.45L86.34 0.45Q81.55 0.45 78.75-0.88 75.94-2.2 74.77-4.93 73.59-7.65 73.59-11.75L73.59-11.75 73.59-25.8Q73.59-27.9 73.34-28.93 73.09-29.95 72.42-30.33 71.75-30.7 70.44-30.9L70.44-30.9Q70.3-31.55 70.22-32.35 70.14-33.15 70.14-33.95L70.14-33.95Q71.14-33.9 72.89-33.85 74.64-33.8 76.44-33.8L76.44-33.8Q77.34-33.8 78.5-33.8 79.64-33.8 80.84-33.83 82.05-33.85 83.05-33.88 84.05-33.9 84.64-33.95L84.64-33.95Q84.64-33.1 84.59-32.35 84.55-31.6 84.34-30.9L84.34-30.9Q83-30.75 82.27-30.35 81.55-29.95 81.3-28.93 81.05-27.9 81.05-25.8L81.05-25.8 81.05-12.55Q81.05-9.6 81.72-7.43 82.39-5.25 83.94-4.1 85.5-2.95 88.05-2.95L88.05-2.95Q89.25-2.95 90.57-3.4 91.89-3.85 92.8-4.95L92.8-4.95Q93.44-5.7 93.82-6.73 94.19-7.75 94.39-9.45 94.59-11.15 94.59-13.75L94.59-13.75 94.59-24.35Q94.59-26.8 94.3-28.15 94-29.5 93.27-30.1 92.55-30.7 91.19-30.9L91.19-30.9Q91.05-31.75 91-32.5 90.94-33.25 90.94-33.95L90.94-33.95Q91.59-33.9 92.5-33.88 93.39-33.85 94.37-33.83 95.34-33.8 96.09-33.8L96.09-33.8Q97.39-33.8 98.8-33.85 100.19-33.9 101.15-33.95L101.15-33.95Q101.15-33.2 101.09-32.48 101.05-31.75 100.84-30.9L100.84-30.9Q99.59-30.75 98.94-30.18 98.3-29.6 98.05-28.28 97.8-26.95 97.8-24.6L97.8-24.6ZM107.09-33.9L107.09-33.9Q107.94-33.85 109.44-33.83 110.94-33.8 112.69-33.8 114.44-33.8 116.12-33.8 117.79-33.8 119.04-33.8L119.04-33.8Q120.69-33.8 122.47-33.8 124.24-33.8 126.02-33.83 127.79-33.85 129.44-33.9L129.44-33.9Q129.79-33.4 129.99-32.75 130.19-32.1 130.24-31.3L130.24-31.3Q127.44-26 124.77-21.13 122.09-16.25 119.32-11.5 116.54-6.75 113.44-1.7L113.44-1.7 112.09-2.95 118.84-2.95Q121.44-2.95 122.97-3.45 124.49-3.95 125.39-5.38 126.29-6.8 126.89-9.55L126.89-9.55Q129.39-9.35 130.99-8.4L130.99-8.4Q130.74-7.3 130.47-5.8 130.19-4.3 130.04-2.73 129.89-1.15 129.84 0.15L129.84 0.15Q127.64 0.05 125.44 0.03 123.24 0 121.09 0 118.94 0 116.84 0L116.84 0Q113.64 0 110.67 0.03 107.69 0.05 105.79 0.15L105.79 0.15Q105.44-0.4 105.24-1.05 105.04-1.7 105.04-2.45L105.04-2.45Q107.39-6.35 109.52-10 111.64-13.65 113.69-17.2 115.74-20.75 117.74-24.38 119.74-28 121.79-31.85L121.79-31.85 123.69-30.9 116.54-30.9Q114.69-30.9 113.49-30.38 112.29-29.85 111.52-28.38 110.74-26.9 110.14-24.05L110.14-24.05Q108.99-24.05 107.87-24.18 106.74-24.3 105.99-24.65L105.99-24.65Q106.59-26.65 106.84-29.2 107.09-31.75 107.09-33.9ZM151.94 0.45L151.94 0.45Q146.74 0.45 142.97-1.8 139.19-4.05 137.12-7.98 135.04-11.9 135.04-17.05L135.04-17.05Q135.04-20.95 136.32-24.13 137.59-27.3 139.87-29.58 142.14-31.85 145.22-33.05 148.29-34.25 151.94-34.25L151.94-34.25Q156.99-34.25 160.79-32.15 164.59-30.05 166.74-26.25 168.89-22.45 168.89-17.35L168.89-17.35Q168.89-13.5 167.69-10.25 166.49-7 164.24-4.6 161.99-2.2 158.87-0.88 155.74 0.45 151.94 0.45ZM152.74-2.75L152.74-2.75Q155.39-2.75 157.24-4.48 159.09-6.2 160.07-9.22 161.04-12.25 161.04-16.2L161.04-16.2Q161.04-20.35 159.79-23.75 158.54-27.15 156.29-29.15 154.04-31.15 151.09-31.15L151.09-31.15Q148.64-31.15 146.79-29.6 144.94-28.05 143.89-25.18 142.84-22.3 142.84-18.3L142.84-18.3Q142.84-15.25 143.47-12.43 144.09-9.6 145.32-7.43 146.54-5.25 148.39-4 150.24-2.75 152.74-2.75Z" opacity="1" transform="matrix(1,0,0,1,0,0)" fill="#124948" class="undefined-text-0" data-fill-palette-color="primary" id="text-0"></path></svg></g></svg></g></svg></g></svg></g><g></g></svg></g></svg></g></svg></g><g mask="url(#a15cf315-f136-4398-b115-1dc17504316c)"><g transform="matrix(2.9420589086366604, 0, 0, 2.9420589086366604, 76.12631703984269, 1)"><svg xmlns="http://www.w3.org/2000/svg" xmlns:xlink="http://www.w3.org/1999/xlink" version="1.1" x="0" y="0" viewBox="4.139461517333984 3.824002265930176 82.68609619140625 83.3429946899414" enable-background="new 0 0 90 90" xml:space="preserve" height="83.3429946899414" width="82.68609619140625" class="icon-none" data-fill-palette-color="accent" id="none"><path d="M85.307 48.206c0.174-0.343 0.337-0.693 0.484-1.056 2.054-5.043 0.943-10.58-2.39-14.437 0.019-0.293 0.039-0.585 0.039-0.883 0-4.466-2.099-8.436-5.356-11-0.683-1.749-1.724-3.39-3.136-4.802-2.081-2.081-4.654-3.365-7.345-3.862-1.503-2.286-3.686-4.158-6.411-5.268-2.638-1.074-5.41-1.279-8.008-0.76-2.211-1.459-4.855-2.314-7.703-2.314-1.997 0-3.893 0.425-5.612 1.178-4.116-0.49-8.406 0.833-11.564 3.991-0.276 0.276-0.536 0.563-0.784 0.856-5.175 0.348-9.956 3.553-12.042 8.679-0.112 0.275-0.204 0.554-0.297 0.832-3.975 2.027-6.842 5.892-7.498 10.478-2.833 3.776-3.508 8.646-2.025 12.95-0.173 0.342-0.336 0.692-0.484 1.054C3.12 48.887 4.23 54.424 7.563 58.28c-0.018 0.292-0.039 0.585-0.039 0.882 0 4.467 2.099 8.437 5.356 11 0.683 1.748 1.723 3.388 3.134 4.799 2.081 2.081 4.654 3.364 7.344 3.862 1.503 2.285 3.686 4.158 6.411 5.268 2.637 1.074 5.41 1.279 8.007 0.761 2.21 1.46 4.856 2.315 7.704 2.315 1.997 0 3.893-0.425 5.612-1.178 4.116 0.49 8.407-0.832 11.565-3.99 0.276-0.276 0.536-0.563 0.784-0.856 5.175-0.348 9.957-3.553 12.043-8.678 0.112-0.276 0.204-0.555 0.298-0.833 3.976-2.027 6.844-5.893 7.499-10.479C86.114 57.377 86.788 52.509 85.307 48.206zM83.279 57.108c-0.237-1.607-0.746-3.124-1.48-4.505 0.758-0.632 1.455-1.344 2.073-2.138C84.303 52.678 84.101 54.985 83.279 57.108zM80.576 61.265c-1.291 1.291-2.807 2.214-4.418 2.794-0.773-3.348-2.762-6.373-5.686-8.391 3.406 0.583 6.843-0.142 9.689-1.89 0.815 1.621 1.285 3.445 1.285 5.384 0 0.407-0.021 0.81-0.061 1.206C81.134 60.677 80.864 60.977 80.576 61.265zM74.125 70.222c-1.44 0.611-3.025 0.95-4.689 0.95-0.947 0-1.863-0.121-2.747-0.328-0.198-2.192-0.9-4.348-2.127-6.27 2.994 1.912 6.554 2.568 9.938 1.981C74.564 67.769 74.446 69.002 74.125 70.222zM62.435 79.188c-1.331-0.009-2.679-0.246-3.995-0.723 0.67-1.637 1.046-3.425 1.046-5.302 0-1.913-0.387-3.736-1.081-5.397 1.624 2.079 3.821 3.685 6.353 4.587C64.705 74.764 63.928 77.154 62.435 79.188zM50.777 83.933c-2.14-0.355-4.195-1.295-5.925-2.812 1.329-1.302 2.422-2.886 3.168-4.719 0.721-1.771 1.05-3.606 1.033-5.406 0.992 3.496 3.323 6.578 6.664 8.43C54.533 81.357 52.821 82.926 50.777 83.933zM33.953 76.514c0.653-0.459 1.283-0.968 1.867-1.552 1.353-1.354 2.369-2.916 3.052-4.581-0.454 3.698 0.567 7.536 3.06 10.576-1.136 0.794-2.399 1.38-3.732 1.743C36.187 81.162 34.676 79.008 33.953 76.514zM24.577 76.988c-0.681-1.216-1.141-2.545-1.369-3.926 3.792-0.456 7.113-2.432 9.351-5.294-0.694 1.661-1.08 3.483-1.08 5.396 0 0.825 0.085 1.63 0.223 2.416C29.501 76.79 27.008 77.261 24.577 76.988zM14.56 68.935c-0.703-2.064-0.832-4.277-0.379-6.396 3.771 1.116 7.703 0.567 10.934-1.286-1.269 1.277-2.313 2.819-3.035 4.59-0.708 1.74-1.034 3.539-1.03 5.308C18.634 71.055 16.404 70.252 14.56 68.935zM10.237 40.091c1.976 2.693 4.884 4.661 8.258 5.406-2.225 0.491-4.244 1.519-5.933 2.929-0.772-0.479-1.507-1.043-2.177-1.713-1.112-1.112-1.952-2.392-2.537-3.755C8.503 41.863 9.31 40.901 10.237 40.091zM9.516 31.831c0-0.408 0.021-0.811 0.061-1.209 0.252-0.308 0.522-0.607 0.81-0.896 1.292-1.292 2.808-2.214 4.419-2.794 0.771 3.348 2.758 6.373 5.681 8.39-3.405-0.582-6.84 0.144-9.686 1.893C9.985 35.593 9.516 33.769 9.516 31.831zM16.836 20.772c1.442-0.612 3.027-0.952 4.692-0.952 0.946 0 1.863 0.121 2.747 0.328 0.197 2.191 0.898 4.345 2.124 6.265-2.993-1.91-6.552-2.566-9.936-1.978C16.398 23.224 16.516 21.991 16.836 20.772zM28.527 11.804c1.332 0.008 2.68 0.246 3.997 0.722-0.67 1.635-1.045 3.423-1.045 5.299 0 1.915 0.386 3.738 1.082 5.4-1.625-2.08-3.822-3.686-6.354-4.588C26.257 16.229 27.034 13.838 28.527 11.804zM40.187 7.059c2.14 0.356 4.195 1.295 5.925 2.812-1.329 1.301-2.421 2.885-3.167 4.717-0.722 1.773-1.052 3.608-1.034 5.41-0.993-3.497-3.324-6.58-6.665-8.432C36.43 9.633 38.142 8.066 40.187 7.059zM57.011 14.477c-0.652 0.459-1.281 0.967-1.865 1.551-1.354 1.354-2.37 2.917-3.054 4.584 0.455-3.7-0.567-7.538-3.06-10.578 1.136-0.793 2.398-1.379 3.73-1.742C54.775 9.829 56.286 11.982 57.011 14.477zM66.385 14.001c0.682 1.217 1.143 2.547 1.37 3.929-3.792 0.456-7.114 2.433-9.352 5.298 0.695-1.663 1.082-3.486 1.082-5.401 0-0.826-0.086-1.63-0.223-2.417C61.462 14.2 63.955 13.729 66.385 14.001zM76.404 22.059c0.701 2.064 0.831 4.276 0.378 6.394-3.77-1.116-7.704-0.566-10.937 1.29 1.271-1.278 2.316-2.821 3.038-4.594 0.708-1.739 1.034-3.537 1.03-5.305C72.33 19.939 74.56 20.742 76.404 22.059zM80.727 50.9c-1.978-2.693-4.888-4.66-8.263-5.405 2.227-0.491 4.247-1.519 5.938-2.929 0.771 0.478 1.505 1.041 2.175 1.71 1.113 1.113 1.953 2.394 2.538 3.758C82.461 49.13 81.653 50.091 80.727 50.9zM60.279 60.292c-0.901-0.575-1.857-1.028-2.841-1.379 0.02-0.961 0.156-1.893 0.389-2.786 0.201-0.085 0.409-0.153 0.614-0.228C58.795 57.435 59.405 58.923 60.279 60.292zM56.513 64.559c-1.152-1.475-2.6-2.7-4.244-3.614 0.18-0.295 0.37-0.58 0.571-0.855 0.893 0.007 1.781 0.12 2.654 0.324C55.625 61.87 55.972 63.264 56.513 64.559zM39.689 62.644c0.826-0.455 1.714-0.807 2.644-1.06 0.216 0.165 0.425 0.335 0.628 0.513-0.035 0.034-0.072 0.063-0.107 0.098-1.353 1.353-2.368 2.915-3.051 4.58C39.971 65.4 39.928 64.008 39.689 62.644zM26.101 37.607c1.602 0.273 3.209 0.258 4.76-0.013 0.032 0.612 0.028 1.225-0.033 1.834-0.42 0.514-0.889 0.985-1.388 1.423C28.53 39.611 27.408 38.51 26.101 37.607zM30.685 30.7c0.902 0.575 1.857 1.028 2.84 1.378-0.02 0.962-0.156 1.893-0.389 2.787-0.201 0.085-0.409 0.153-0.615 0.228C32.169 33.558 31.559 32.07 30.685 30.7zM34.451 26.432c1.152 1.475 2.599 2.701 4.244 3.615-0.179 0.295-0.369 0.58-0.57 0.855-0.892-0.006-1.782-0.12-2.655-0.324C35.34 29.121 34.993 27.727 34.451 26.432zM51.275 28.347c-0.826 0.456-1.714 0.807-2.645 1.06-0.216-0.165-0.425-0.334-0.628-0.512 0.035-0.034 0.072-0.063 0.106-0.097 1.354-1.354 2.369-2.916 3.053-4.583C50.993 25.59 51.036 26.982 51.275 28.347zM54.54 58.22c0.326-0.29 0.665-0.562 1.019-0.813-0.041 0.318-0.072 0.641-0.091 0.967C55.159 58.312 54.851 58.26 54.54 58.22zM42.182 59.09c0.037 0.009 0.074 0.013 0.111 0.021 0.368 0.087 0.737 0.16 1.11 0.217 0.003 0.001 0.007 0.002 0.011 0.002-0.226 0.033-0.444 0.089-0.667 0.133C42.559 59.338 42.377 59.206 42.182 59.09zM31.163 54.265c0.598 0.291 1.174 0.635 1.727 1.03 0.214 0.628 0.373 1.279 0.481 1.95-1.866 0.226-3.667 0.814-5.29 1.745 1.269-1.275 2.312-2.817 3.033-4.587C31.132 54.357 31.145 54.311 31.163 54.265zM36.424 32.773c-0.326 0.29-0.665 0.562-1.018 0.813 0.042-0.319 0.072-0.641 0.091-0.967C35.805 32.68 36.113 32.733 36.424 32.773zM59.801 36.725c-0.598-0.291-1.175-0.634-1.728-1.03-0.214-0.628-0.373-1.28-0.48-1.95 1.868-0.226 3.671-0.816 5.295-1.748-1.271 1.277-2.316 2.82-3.038 4.592C59.831 36.634 59.819 36.68 59.801 36.725zM51.148 56.086c-0.226 0.12-0.46 0.226-0.693 0.331-0.118 0.055-0.234 0.115-0.354 0.165-0.223 0.093-0.451 0.17-0.679 0.249-0.142 0.049-0.281 0.104-0.424 0.147-0.195 0.061-0.395 0.105-0.592 0.155-0.185 0.046-0.367 0.098-0.553 0.135-0.123 0.024-0.249 0.039-0.373 0.06-0.063 0.011-0.127 0.02-0.19 0.029-0.201 0.03-0.401 0.066-0.604 0.087-0.069 0.007-0.139 0.008-0.208 0.014-0.249 0.021-0.499 0.032-0.752 0.037-0.07 0.002-0.14 0.011-0.21 0.011-0.088 0-0.177-0.008-0.266-0.01-0.31-0.006-0.618-0.018-0.921-0.047-0.097-0.009-0.194-0.027-0.292-0.039-0.103-0.013-0.204-0.029-0.307-0.044-0.187-0.028-0.375-0.05-0.56-0.086-0.214-0.042-0.427-0.099-0.64-0.153-0.166-0.042-0.333-0.079-0.496-0.127-0.269-0.081-0.536-0.18-0.802-0.281-0.108-0.04-0.218-0.074-0.324-0.118-0.275-0.113-0.538-0.243-0.8-0.374-0.097-0.048-0.197-0.09-0.293-0.141-0.058-0.031-0.113-0.069-0.171-0.102-0.142-0.078-0.278-0.164-0.416-0.248-0.14-0.086-0.285-0.164-0.421-0.256-0.15-0.101-0.294-0.216-0.441-0.324-0.168-0.124-0.341-0.243-0.503-0.376-0.231-0.19-0.453-0.397-0.673-0.608-0.125-0.12-0.249-0.242-0.369-0.367-0.216-0.226-0.429-0.453-0.625-0.69-0.124-0.151-0.235-0.313-0.352-0.471-0.118-0.158-0.241-0.312-0.35-0.475-0.051-0.077-0.095-0.16-0.144-0.238-0.09-0.143-0.177-0.287-0.261-0.433-0.064-0.109-0.134-0.217-0.194-0.328-0.131-0.245-0.246-0.498-0.359-0.751-0.044-0.1-0.096-0.196-0.138-0.297-0.099-0.237-0.182-0.48-0.265-0.724-0.043-0.127-0.094-0.252-0.133-0.38-0.064-0.207-0.112-0.418-0.164-0.628-0.043-0.173-0.092-0.344-0.126-0.518-0.027-0.132-0.042-0.266-0.064-0.398-0.011-0.067-0.021-0.135-0.031-0.201-0.028-0.189-0.063-0.378-0.082-0.567-0.008-0.077-0.008-0.155-0.015-0.232-0.022-0.269-0.038-0.54-0.041-0.813 0-0.042-0.006-0.083-0.006-0.125 0-0.096 0.008-0.192 0.01-0.288 0.006-0.304 0.017-0.605 0.045-0.903 0.011-0.113 0.032-0.227 0.046-0.34 0.009-0.078 0.022-0.156 0.034-0.234 0.028-0.195 0.052-0.392 0.089-0.584 0.042-0.217 0.1-0.433 0.155-0.649 0.042-0.163 0.078-0.327 0.125-0.487 0.082-0.272 0.181-0.542 0.283-0.811 0.04-0.105 0.073-0.213 0.116-0.316 0.112-0.273 0.241-0.534 0.371-0.794 0.051-0.101 0.094-0.207 0.147-0.307 0.012-0.022 0.026-0.042 0.038-0.064 0.09-0.165 0.19-0.32 0.286-0.479 0.095-0.155 0.182-0.315 0.284-0.466 0.076-0.113 0.163-0.22 0.244-0.332 0.149-0.207 0.296-0.416 0.458-0.613 0.095-0.115 0.203-0.222 0.302-0.334 0.333-0.375 0.686-0.728 1.062-1.058 0.094-0.083 0.184-0.174 0.28-0.253 0.21-0.173 0.433-0.331 0.654-0.489 0.097-0.069 0.19-0.146 0.289-0.212 0.146-0.098 0.3-0.182 0.45-0.273 0.113-0.069 0.224-0.14 0.339-0.205 0.072-0.041 0.142-0.087 0.215-0.127 0.274-0.147 0.557-0.277 0.842-0.403 0.069-0.03 0.136-0.066 0.205-0.095 0.264-0.11 0.534-0.204 0.805-0.295 0.1-0.033 0.198-0.073 0.298-0.104 0.231-0.072 0.468-0.126 0.704-0.184 0.147-0.036 0.293-0.078 0.442-0.107 0.125-0.026 0.253-0.04 0.38-0.062 0.124-0.021 0.248-0.04 0.373-0.057 0.139-0.019 0.277-0.046 0.416-0.06 0.079-0.008 0.159-0.008 0.238-0.015 0.31-0.025 0.622-0.046 0.938-0.047 0.101 0 0.202 0.008 0.303 0.011 0.299 0.006 0.596 0.017 0.889 0.045 0.127 0.012 0.255 0.035 0.382 0.052 0.071 0.009 0.143 0.021 0.214 0.031 0.188 0.027 0.376 0.05 0.56 0.085 0.233 0.046 0.466 0.107 0.697 0.167 0.146 0.038 0.294 0.07 0.438 0.113 0.294 0.088 0.587 0.194 0.878 0.306 0.082 0.032 0.167 0.058 0.248 0.091 0.304 0.125 0.596 0.267 0.885 0.414 0.068 0.035 0.14 0.064 0.207 0.1 0.075 0.04 0.146 0.088 0.22 0.129 0.159 0.089 0.314 0.184 0.468 0.28 0.106 0.066 0.218 0.125 0.321 0.195 0.191 0.128 0.376 0.272 0.562 0.412 0.127 0.097 0.26 0.186 0.383 0.287 0.305 0.25 0.6 0.515 0.884 0.798 0.284 0.284 0.549 0.58 0.799 0.884 0.099 0.12 0.186 0.25 0.279 0.374 0.144 0.189 0.29 0.377 0.421 0.572 0.031 0.048 0.058 0.099 0.089 0.147 0.099 0.153 0.19 0.311 0.282 0.468 0.074 0.127 0.155 0.251 0.225 0.38 0.123 0.231 0.23 0.469 0.339 0.708 0.052 0.114 0.11 0.226 0.158 0.342 0.094 0.224 0.171 0.455 0.251 0.684 0.048 0.14 0.104 0.278 0.146 0.419 0.06 0.194 0.104 0.392 0.154 0.589 0.046 0.185 0.098 0.37 0.136 0.557 0.028 0.14 0.045 0.284 0.068 0.425 0.003 0.021 0.006 0.042 0.009 0.062 0.036 0.227 0.076 0.453 0.099 0.68 0.008 0.082 0.009 0.165 0.016 0.247 0.011 0.141 0.015 0.283 0.021 0.425 0.007 0.166 0.023 0.332 0.023 0.498 0 0.082-0.007 0.163-0.009 0.245-0.002 0.103-0.01 0.206-0.015 0.309-0.009 0.208-0.012 0.418-0.031 0.624-0.009 0.085-0.025 0.171-0.035 0.257-0.019 0.158-0.044 0.316-0.068 0.475-0.022 0.142-0.038 0.285-0.065 0.425-0.037 0.192-0.09 0.383-0.137 0.574-0.014 0.054-0.025 0.108-0.04 0.162-0.034 0.133-0.063 0.269-0.103 0.399-0.088 0.292-0.193 0.582-0.305 0.871-0.032 0.084-0.059 0.171-0.093 0.255-0.124 0.302-0.265 0.591-0.41 0.877-0.035 0.069-0.064 0.143-0.102 0.211-0.055 0.102-0.12 0.199-0.178 0.301-0.073 0.13-0.15 0.258-0.229 0.384-0.067 0.107-0.128 0.22-0.198 0.325-0.135 0.201-0.285 0.396-0.434 0.59-0.09 0.118-0.172 0.241-0.265 0.354-0.25 0.305-0.517 0.602-0.801 0.886s-0.581 0.551-0.886 0.801c-0.113 0.093-0.235 0.174-0.352 0.263-0.196 0.149-0.391 0.301-0.594 0.437-0.065 0.044-0.136 0.08-0.202 0.122-0.125 0.081-0.254 0.155-0.383 0.231C51.423 55.923 51.288 56.011 51.148 56.086zM32.311 50.204c0.004 0.012 0.007 0.024 0.012 0.037-0.071-0.086-0.15-0.165-0.224-0.249 0.006-0.101 0.021-0.201 0.024-0.302C32.178 49.864 32.249 50.032 32.311 50.204zM58.643 40.751c0.071 0.086 0.15 0.164 0.223 0.248-0.006 0.101-0.021 0.202-0.024 0.303-0.052-0.166-0.12-0.325-0.179-0.489C58.655 40.793 58.65 40.771 58.643 40.751zM59.423 46.778c0.022-0.232 0.026-0.47 0.036-0.705 0-0.004 0.001-0.007 0.001-0.011 0.043 0.136 0.098 0.268 0.145 0.402-0.06 0.118-0.127 0.233-0.184 0.354C59.422 46.805 59.422 46.792 59.423 46.778zM60.862 42.886c0.255 0.198 0.518 0.385 0.786 0.565-0.213 0.239-0.415 0.483-0.607 0.733C60.956 43.756 60.899 43.323 60.862 42.886zM53.812 34.26c-0.004-0.003-0.009-0.005-0.013-0.009-0.029-0.021-0.057-0.044-0.086-0.066-0.005-0.003-0.009-0.006-0.013-0.009-0.282-0.205-0.574-0.395-0.872-0.578-0.055-0.034-0.109-0.07-0.165-0.104-0.021-0.012-0.039-0.026-0.06-0.038 0.256 0.062 0.514 0.101 0.77 0.149C53.518 33.825 53.653 34.048 53.812 34.26zM48.688 31.887c-0.374-0.089-0.75-0.164-1.129-0.221-0.007-0.001-0.015-0.003-0.022-0.004 0.23-0.034 0.453-0.089 0.68-0.134 0.192 0.127 0.377 0.262 0.578 0.38C48.76 31.899 48.724 31.895 48.688 31.887zM39.531 32.836c-0.023 0.011-0.045 0.024-0.068 0.036-0.205 0.097-0.413 0.187-0.613 0.294 0.088-0.098 0.168-0.206 0.254-0.307C39.246 32.85 39.389 32.849 39.531 32.836zM35.082 36.141c-0.003 0.003-0.005 0.007-0.008 0.01-0.118 0.131-0.242 0.258-0.354 0.393-0.009 0.011-0.02 0.021-0.029 0.032 0.034-0.095 0.059-0.194 0.092-0.29C34.881 36.236 34.983 36.193 35.082 36.141zM31.542 44.173c-0.002 0.021-0.001 0.043-0.003 0.065-0.019 0.206-0.021 0.416-0.03 0.624 0 0.01-0.001 0.02-0.001 0.029 0 0.013-0.002 0.025-0.003 0.038-0.043-0.136-0.098-0.269-0.146-0.403C31.418 44.408 31.486 44.293 31.542 44.173zM30.102 48.105c-0.255-0.197-0.518-0.385-0.787-0.564 0.212-0.238 0.415-0.483 0.608-0.733C30.007 47.235 30.064 47.669 30.102 48.105zM37.162 56.741c0.008 0.006 0.017 0.011 0.025 0.017 0.015 0.011 0.029 0.022 0.043 0.033 0.01 0.007 0.019 0.015 0.028 0.021 0.277 0.201 0.564 0.389 0.856 0.568 0.069 0.043 0.136 0.088 0.206 0.13 0.01 0.006 0.019 0.013 0.029 0.019-0.252-0.062-0.506-0.1-0.759-0.146C37.45 57.168 37.316 56.949 37.162 56.741zM51.436 58.156c0.017-0.008 0.032-0.018 0.049-0.025 0.209-0.1 0.423-0.191 0.627-0.301-0.088 0.098-0.166 0.204-0.252 0.304C51.719 58.143 51.576 58.143 51.436 58.156zM55.885 54.851c0.006-0.007 0.012-0.015 0.018-0.021 0.108-0.121 0.225-0.237 0.328-0.362 0.014-0.016 0.028-0.03 0.042-0.046-0.033 0.094-0.058 0.191-0.09 0.285C56.084 54.756 55.982 54.799 55.885 54.851zM61.788 46.608c0.456-0.76 0.998-1.481 1.637-2.146 0.943 0.448 1.939 0.803 2.983 1.034-1.551 0.342-3.005 0.939-4.316 1.747C61.987 47.032 61.881 46.823 61.788 46.608zM65.093 43.02c3.339-2.399 7.622-2.883 11.342-1.44-1.973 1.418-4.385 2.262-6.999 2.262C67.902 43.842 66.441 43.543 65.093 43.02zM63.11 42.027c-0.792-0.493-1.53-1.065-2.185-1.724 0.042-0.324 0.097-0.646 0.166-0.969 1.845 0.544 3.774 0.714 5.672 0.48C65.465 40.347 64.232 41.088 63.11 42.027zM61.657 37.454c0.016-0.038 0.024-0.076 0.04-0.114 2.349-5.768 8.669-8.722 14.518-6.992-0.586 1.484-1.474 2.876-2.674 4.076C70.323 37.641 65.735 38.649 61.657 37.454zM57.429 31.778c0.025-6.095 4.592-11.108 10.491-11.853-0.006 1.491-0.283 3.006-0.88 4.472C65.346 28.557 61.586 31.245 57.429 31.778zM55.432 31.829c0 0.01 0.001 0.02 0.001 0.03-0.286-0.011-0.571-0.031-0.858-0.063-0.452-0.807-0.812-1.652-1.063-2.523 1.135-0.796 2.15-1.75 3.003-2.842C55.818 28.092 55.432 29.916 55.432 31.829zM52.125 31.252c-0.247-0.083-0.495-0.159-0.74-0.259-0.19-0.077-0.368-0.172-0.552-0.258 0.319-0.132 0.633-0.273 0.94-0.428C51.878 30.626 51.997 30.94 52.125 31.252zM43.508 29.663c-0.725-0.12-1.426-0.305-2.102-0.548 0.004-0.009 0.008-0.017 0.012-0.026 0.722-1.772 1.051-3.606 1.034-5.408 0.522 1.839 1.428 3.551 2.645 5.039C44.587 29.078 44.057 29.393 43.508 29.663zM29.175 44.383c-0.456 0.76-0.998 1.482-1.637 2.147-0.942-0.447-1.938-0.803-2.981-1.033 1.55-0.342 3.004-0.939 4.315-1.746C28.977 43.96 29.083 44.168 29.175 44.383zM25.869 47.973c-3.338 2.398-7.621 2.882-11.339 1.439 1.971-1.418 4.382-2.262 6.996-2.262C23.06 47.15 24.521 47.449 25.869 47.973zM27.853 48.965c0.793 0.493 1.53 1.066 2.186 1.725-0.043 0.322-0.097 0.644-0.166 0.965-1.842-0.543-3.771-0.713-5.667-0.48C25.502 50.643 26.732 49.902 27.853 48.965zM29.307 53.536c-0.015 0.038-0.024 0.077-0.04 0.115-2.348 5.767-8.667 8.722-14.518 6.992 0.586-1.484 1.475-2.878 2.675-4.078C20.641 53.35 25.229 52.34 29.307 53.536zM33.536 59.212c-0.025 6.096-4.591 11.11-10.492 11.855 0.006-1.492 0.284-3.008 0.881-4.475C25.617 62.434 29.378 59.745 33.536 59.212zM35.533 59.163c0-0.011-0.001-0.021-0.001-0.031 0.286 0.011 0.571 0.03 0.857 0.062 0.453 0.808 0.812 1.652 1.063 2.523-1.133 0.795-2.147 1.748-2.999 2.838C35.147 62.896 35.533 61.074 35.533 59.163zM38.839 59.739c0.247 0.082 0.495 0.158 0.739 0.258 0.19 0.077 0.368 0.172 0.552 0.258-0.319 0.132-0.632 0.273-0.938 0.428C39.086 60.364 38.968 60.051 38.839 59.739zM47.454 61.329c0.726 0.12 1.428 0.305 2.103 0.549-0.003 0.009-0.008 0.018-0.012 0.026-0.722 1.772-1.05 3.605-1.033 5.406-0.522-1.839-1.429-3.551-2.645-5.038C46.377 61.914 46.906 61.599 47.454 61.329zM60.136 51.563c0.421-0.515 0.89-0.986 1.389-1.424 0.91 1.242 2.033 2.344 3.34 3.245-1.602-0.273-3.21-0.259-4.762 0.013C60.071 52.786 60.074 52.174 60.136 51.563zM63.133 48.95c1.834-1.135 3.988-1.801 6.303-1.801 3.983 0 7.503 1.946 9.688 4.932-3.149 1.939-7.143 2.415-10.832 0.914C66.147 52.122 64.403 50.693 63.133 48.95zM70.365 38.886c1.667-0.684 3.229-1.7 4.584-3.054 1.398-1.399 2.435-3.021 3.117-4.751 1.239 0.602 2.342 1.382 3.269 2.314-0.339 2.601-1.505 4.938-3.232 6.74C75.674 38.981 72.984 38.564 70.365 38.886zM57.494 17.827c-0.001 3.744-1.715 7.086-4.399 9.289-0.341-3.456 0.812-7.031 3.46-9.68 0.282-0.283 0.577-0.546 0.88-0.795C57.473 17.031 57.494 17.426 57.494 17.827zM46.699 27.387c-0.028 0.029-0.061 0.052-0.089 0.08-2.686-3.293-3.537-7.913-1.821-12.128 0.64-1.571 1.577-2.929 2.715-4.045C51.371 16.011 51.104 22.983 46.699 27.387zM39.588 28.287c-3.649-2.061-6.118-5.97-6.118-10.461 0-1.582 0.313-3.089 0.87-4.472C39.523 16.268 41.863 22.632 39.588 28.287zM33.365 29.878c-1.324-0.583-2.569-1.406-3.654-2.491-1.848-1.848-2.956-4.149-3.348-6.545C30.013 22.45 32.7 25.821 33.365 29.878zM27.372 29.726c1.679 1.679 2.746 3.732 3.223 5.89-2.173 0.398-4.48 0.212-6.679-0.683-3.793-1.544-6.364-4.808-7.192-8.524C20.471 25.728 24.477 26.83 27.372 29.726zM22.669 37.996c2.146 0.874 3.89 2.303 5.161 4.046-1.834 1.135-3.989 1.801-6.305 1.801-3.982 0-7.501-1.947-9.687-4.932C14.988 36.971 18.981 36.494 22.669 37.996zM20.595 52.106c-1.666 0.684-3.227 1.699-4.579 3.052-1.399 1.399-2.436 3.023-3.119 4.754-1.239-0.602-2.341-1.382-3.268-2.313 0.339-2.602 1.505-4.939 3.233-6.741C15.289 52.009 17.978 52.427 20.595 52.106zM33.47 73.164c0-3.743 1.714-7.086 4.398-9.288 0.341 3.455-0.811 7.03-3.458 9.677-0.283 0.283-0.578 0.548-0.881 0.797C33.491 73.959 33.47 73.564 33.47 73.164zM44.264 63.604c0.029-0.028 0.06-0.052 0.089-0.08 2.685 3.294 3.537 7.913 1.822 12.126-0.64 1.571-1.577 2.931-2.717 4.047C39.593 74.979 39.86 68.008 44.264 63.604zM51.375 62.705c3.649 2.062 6.118 5.969 6.118 10.459 0 1.583-0.313 3.09-0.87 4.474C51.44 74.725 49.101 68.359 51.375 62.705zM57.598 61.113c1.324 0.583 2.568 1.404 3.653 2.489 1.849 1.849 2.957 4.151 3.349 6.548C60.949 68.541 58.263 65.17 57.598 61.113zM63.589 61.264c-1.678-1.678-2.743-3.73-3.221-5.888 2.173-0.397 4.479-0.212 6.676 0.683 3.794 1.544 6.365 4.808 7.193 8.524C70.491 65.262 66.485 64.16 63.589 61.264zM84.177 45.74c-0.596-1.023-1.316-1.994-2.193-2.871-0.658-0.658-1.375-1.217-2.119-1.716 1.442-1.609 2.525-3.545 3.102-5.694C84.846 38.439 85.387 42.196 84.177 45.74zM81.396 30.815c-0.83-0.644-1.746-1.198-2.738-1.653 0.356-1.51 0.474-3.064 0.323-4.602C80.329 26.327 81.2 28.472 81.396 30.815zM73.539 17.438c0.453 0.453 0.849 0.94 1.214 1.442-1.546-0.635-3.231-0.995-4.996-1.035-0.167-1.133-0.462-2.239-0.895-3.292C70.57 15.124 72.179 16.077 73.539 17.438zM60.441 8.745c1.781 0.725 3.283 1.837 4.474 3.188-2.112 0.02-4.217 0.519-6.147 1.488-0.701-2.114-1.886-4.006-3.432-5.539C57.029 7.799 58.767 8.063 60.441 8.745zM45.481 5.817c1.808 0 3.516 0.411 5.054 1.126-1.022 0.425-1.986 0.981-2.885 1.637-1.223-1.121-2.589-1.995-4.045-2.603C44.218 5.881 44.842 5.817 45.481 5.817zM33.424 10.732c-1.052-0.401-2.122-0.662-3.193-0.8 1.844-1.643 4.066-2.619 6.367-2.928C35.33 8.046 34.261 9.312 33.424 10.732zM25.994 12.05c-1.058 1.886-1.639 3.963-1.754 6.063-0.879-0.174-1.781-0.285-2.712-0.285-1.311 0-2.573 0.193-3.776 0.53C19.447 15.024 22.528 12.776 25.994 12.05zM14.55 22.068c-0.12 0.96-0.127 1.917-0.05 2.863-1.396 0.458-2.732 1.142-3.957 2.052C11.418 25.005 12.811 23.313 14.55 22.068zM7.686 33.878c0.236 1.609 0.745 3.128 1.48 4.51-0.758 0.632-1.457 1.345-2.074 2.141C6.66 38.314 6.863 36.003 7.686 33.878zM6.787 45.252c0.595 1.022 1.314 1.992 2.19 2.868 0.659 0.659 1.377 1.219 2.123 1.719-1.442 1.609-2.526 3.547-3.102 5.698C6.118 52.556 5.576 48.797 6.787 45.252zM9.567 60.178c0.831 0.644 1.747 1.197 2.739 1.652-0.357 1.511-0.474 3.066-0.323 4.604C10.635 64.667 9.764 62.521 9.567 60.178zM17.424 73.553c-0.452-0.452-0.847-0.938-1.212-1.439 1.545 0.635 3.23 0.995 4.995 1.035 0.167 1.132 0.462 2.237 0.894 3.289C20.393 75.866 18.784 74.913 17.424 73.553zM30.521 82.247c-1.782-0.726-3.285-1.838-4.475-3.19 2.113-0.02 4.219-0.518 6.15-1.487 0.701 2.114 1.885 4.007 3.432 5.54C33.933 83.192 32.196 82.929 30.521 82.247zM45.481 85.176c-1.809 0-3.517-0.411-5.055-1.127 1.023-0.426 1.987-0.981 2.887-1.639 1.223 1.122 2.591 1.996 4.047 2.604C46.746 85.111 46.122 85.176 45.481 85.176zM57.54 80.26c1.051 0.4 2.12 0.661 3.191 0.799-1.844 1.643-4.065 2.618-6.365 2.928C55.633 82.945 56.702 81.679 57.54 80.26zM64.97 78.942c1.058-1.887 1.638-3.964 1.753-6.063 0.88 0.174 1.782 0.285 2.713 0.285 1.31 0 2.572-0.193 3.774-0.529C71.516 75.968 68.436 78.216 64.97 78.942zM76.414 68.925c0.121-0.961 0.127-1.919 0.05-2.864 1.396-0.458 2.731-1.141 3.956-2.05C79.545 65.988 78.152 67.68 76.414 68.925z" fill="#f9c9cb" data-fill-palette-color="accent"></path></svg></g></g></svg></g><defs><mask id="a15cf315-f136-4398-b115-1dc17504316c"><rect width="640" height="400" fill="white"></rect><rect width="348.05760000000004" height="96.90462781145324" fill="black" x="145.97119999999998" y="151.5476860942734" id="transform-me" transform="matrix(1,0,0,1,-122.24000000000001,-76.4)"></rect></mask></defs></svg><rect width="395.52" height="247.2" fill="none" stroke="none" visibility="hidden"></rect></g></svg></g></svg>